<mxfile host="app.diagrams.net" modified="2023-11-24T01:00:28.068Z" agent="Mozilla/5.0 (Windows NT 10.0; Win64; x64) AppleWebKit/537.36 (KHTML, like Gecko) Chrome/119.0.0.0 Safari/537.36" version="22.1.3" etag="IzBOu8u05YT8ZccPDDWA" type="github">
  <diagram name="Page-1" id="PxEG8XMqsUsdSQ4X5ZBP">
    <mxGraphModel>
      <root>
        <mxCell id="0" />
        <mxCell id="1" parent="0" />
      </root>
    </mxGraphModel>
  </diagram>
</mxfile>
